<svg width="40" height="40" viewBox="0 0 40 40" fill="none" xmlns="http://www.w3.org/2000/svg">
<rect width="40" height="40" rx="20" fill="#FCFCFC"/>
<path d="M24.137 27.2135H20.8626V16.8205C20.8626 16.5917 20.7717 16.3724 20.6098 16.2105C20.4482 16.0486 20.2286 15.9577 19.9998 15.9577H15.8627C15.3861 15.9577 15 16.3441 15 16.8204C15 17.2971 15.3861 17.6835 15.8627 17.6835H19.1371V27.2129H15.8627C15.3861 27.2129 15 27.599 15 28.0757C15 28.5523 15.3861 28.9384 15.8627 28.9384H24.1373C24.6139 28.9384 25 28.5523 25 28.0757C25 27.599 24.6139 27.2129 24.1373 27.2129L24.137 27.2135Z" fill="#232323"/>
<path d="M20.8498 12.6405C20.8498 13.5125 20.1429 14.2194 19.2708 14.2194C18.3988 14.2194 17.6919 13.5125 17.6919 12.6405C17.6919 11.7684 18.3988 11.0615 19.2708 11.0615C20.1429 11.0615 20.8498 11.7684 20.8498 12.6405Z" fill="#232323"/>
</svg>
