<svg width="14" height="18" viewBox="0 0 14 18" fill="none" xmlns="http://www.w3.org/2000/svg">
<path d="M7 8.89111C7.9625 8.89111 8.75 8.10361 8.75 7.14111C8.75 6.17861 7.9625 5.39111 7 5.39111C6.0375 5.39111 5.25 6.17861 5.25 7.14111C5.25 8.10361 6.0375 8.89111 7 8.89111ZM7 0.141113C10.675 0.141113 14 2.95861 14 7.31611C14 10.0986 11.8562 13.3711 7.5775 17.1424C7.245 17.4311 6.74625 17.4311 6.41375 17.1424C2.14375 13.3711 0 10.0986 0 7.31611C0 2.95861 3.325 0.141113 7 0.141113Z" fill="#FCFCFC"/>
</svg>
