<svg width="16" height="17" viewBox="0 0 16 17" fill="none" xmlns="http://www.w3.org/2000/svg">
<path d="M14.4323 11.6609L12.17 11.4026C11.6267 11.3402 11.0923 11.5272 10.7093 11.9102L9.07041 13.5491C6.54978 12.2665 4.4834 10.209 3.20082 7.6795L4.84858 6.03174C5.23157 5.64875 5.41862 5.11434 5.35627 4.57102L5.09797 2.32651C4.99109 1.42692 4.23401 0.75 3.32551 0.75H1.78464C0.778165 0.75 -0.0590758 1.58724 0.0032719 2.59371C0.475333 10.2001 6.55869 16.2746 14.1562 16.7466C15.1627 16.809 15.9999 15.9717 15.9999 14.9653V13.4244C16.0088 12.5248 15.3319 11.7677 14.4323 11.6609Z" fill="#FCFCFC"/>
</svg>
