<svg width="41" height="40" viewBox="0 0 41 40" fill="none" xmlns="http://www.w3.org/2000/svg">
<rect x="0.666504" width="40" height="40" rx="20" fill="#FCFCFC"/>
<path d="M32.6665 16.7249V22.181H30.484V18.4928L21.1542 23.1522C20.8453 23.3078 20.481 23.3078 20.1721 23.1522L9.26024 17.696C9.02075 17.5734 8.83496 17.3664 8.73871 17.1153C8.64244 16.8639 8.64244 16.5859 8.73871 16.3345C8.83498 16.0833 9.02076 15.8763 9.26024 15.7538L20.1721 10.2976C20.4811 10.1419 20.8453 10.1419 21.1542 10.2976L32.0661 15.7538C32.2461 15.8444 32.3975 15.9832 32.5035 16.1546C32.6094 16.3259 32.6657 16.5234 32.6664 16.7249L32.6665 16.7249ZM20.6631 24.3631C20.3257 24.3653 19.9928 24.2868 19.6919 24.1341L13.0245 20.8058V24.3631C13.0245 25.8101 13.5992 27.1979 14.6224 28.2211C15.6456 29.2443 17.0334 29.8192 18.4804 29.8192H22.8454C24.2924 29.8192 25.6802 29.2443 26.7034 28.2211C27.7266 27.1979 28.3013 25.8101 28.3013 24.3631V20.8058L21.6339 24.0794C21.3379 24.2512 21.0047 24.3485 20.6627 24.3631H20.6631Z" fill="#232323"/>
</svg>
