<svg width="41" height="40" viewBox="0 0 41 40" fill="none" xmlns="http://www.w3.org/2000/svg">
<rect x="0.333496" width="40" height="40" rx="20" fill="#FCFCFC"/>
<path d="M24.7366 24.677C24.7368 25.0365 24.5941 25.3811 24.3399 25.6353C24.0858 25.8893 23.7411 26.032 23.3818 26.0319H17.2851C16.926 26.0313 16.5816 25.8886 16.3276 25.6346C16.0737 25.3805 15.9308 25.0363 15.9303 24.677H11.527C10.9239 24.6779 10.3341 24.4986 9.8335 24.1622V27.3867C9.83367 27.8358 10.0122 28.2665 10.3296 28.5841C10.6473 28.9015 11.0779 29.08 11.527 29.0802H29.1398C29.5891 29.0807 30.02 28.9024 30.3377 28.5846C30.6555 28.267 30.8337 27.836 30.8333 27.3867V24.1622C30.3327 24.4986 29.7429 24.6778 29.1398 24.677L24.7366 24.677Z" fill="#232323"/>
<path d="M17.2861 22.4525H23.3828V25.1622H17.2861V22.4525Z" fill="#232323"/>
<path d="M29.1397 14.3072H24.7379V14.3068L24.738 12.9534C24.7373 12.4142 24.5229 11.8973 24.1417 11.5161C23.7605 11.1347 23.2436 10.9202 22.7044 10.9197H17.9655C17.4263 10.9203 16.9094 11.1347 16.528 11.516C16.1468 11.8974 15.9323 12.4142 15.9318 12.9534V14.307L11.527 14.3072C11.0779 14.3074 10.6472 14.4859 10.3296 14.8035C10.0122 15.121 9.83367 15.5516 9.8335 16.0008V21.759C9.83367 22.2081 10.0122 22.6388 10.3296 22.9564C10.6473 23.2738 11.0779 23.4524 11.527 23.4525H15.9303V22.0977C15.9308 21.7386 16.0737 21.3942 16.3276 21.1401C16.5816 20.8863 16.926 20.7434 17.2851 20.7428H23.3818C23.7411 20.7428 24.0858 20.8854 24.3399 21.1396C24.5941 21.3936 24.7368 21.7384 24.7366 22.0977V23.4525H29.1399C29.5892 23.453 30.0201 23.2747 30.3378 22.9569C30.6556 22.6393 30.8338 22.2083 30.8334 21.759V16.0007C30.8337 15.5514 30.6556 15.1204 30.3378 14.8028C30.0202 14.4852 29.5892 14.3068 29.1399 14.3072L29.1397 14.3072ZM17.2861 14.3072V14.3068L17.2863 12.9534C17.2865 12.7735 17.358 12.6008 17.4854 12.4736C17.6126 12.3463 17.7852 12.2747 17.9651 12.2745H22.7041C22.884 12.2747 23.0566 12.3464 23.1838 12.4736C23.311 12.601 23.3827 12.7734 23.3829 12.9534V14.307L17.2861 14.3072Z" fill="#232323"/>
</svg>
