<svg width="40" height="41" viewBox="0 0 40 41" fill="none" xmlns="http://www.w3.org/2000/svg">
<rect y="0.25" width="40" height="40" rx="20" fill="#FCFCFC"/>
<path d="M30.9999 17.1385C30.9942 15.6521 30.4814 14.2125 29.5464 13.0571C29.864 11.7364 29.7647 10.3497 29.2631 9.08725C29.1642 8.84424 28.9615 8.65845 28.7111 8.58074C28.3564 8.45922 27.0145 8.2314 24.2803 10.0035V10.0038C23.104 9.69334 21.8911 9.54676 20.675 9.5683C19.457 9.5464 18.242 9.69299 17.0643 10.0038C14.2591 8.19109 12.8006 8.48461 12.5071 8.57078C12.2553 8.65167 12.0529 8.84135 11.955 9.08718C11.4521 10.3453 11.3493 11.7282 11.6615 13.0471C10.6958 14.1965 10.1812 15.6578 10.2133 17.1586C10.2133 22.7593 13.4184 24.4505 16.3554 25.0481C16.2046 25.4169 16.1008 25.803 16.0467 26.1975C16.0414 26.2396 16.0414 26.2823 16.0467 26.3243V27.8736C13.3732 28.0964 12.8009 26.5317 12.7452 26.3543V26.3547C12.7321 26.3134 12.7169 26.2728 12.6992 26.2328C12.1828 25.1796 11.274 24.3703 10.1674 23.9796C9.70322 23.8246 9.2009 24.075 9.04591 24.5391C8.89085 25.0033 9.14128 25.5056 9.60541 25.6609C10.2186 25.8824 10.7301 26.3197 11.0437 26.8912C11.3983 28.0406 12.8466 29.8585 16.0365 29.6558V31.1143C16.0365 31.6038 16.4331 32.0005 16.9227 32.0005C17.4119 32.0005 17.8089 31.6038 17.8089 31.1143V26.3899C17.876 25.8739 18.1007 25.3914 18.4518 25.0075C18.7033 24.7722 18.7944 24.4123 18.6856 24.0856C18.5768 23.7592 18.2875 23.5257 17.9456 23.4883C14.8567 23.1287 12.001 22.1111 12.001 17.1232H12.0006C11.9593 15.906 12.4294 14.727 13.2969 13.8722C13.5322 13.6193 13.6099 13.258 13.4997 12.9305C13.2012 12.0637 13.1818 11.1252 13.4439 10.2467C14.531 10.4922 15.5522 10.9708 16.4364 11.6494C16.6667 11.8016 16.9538 11.8408 17.2163 11.7557C18.3416 11.4131 19.5143 11.2541 20.6902 11.2849C21.8639 11.2542 23.0353 11.4131 24.1588 11.7557C24.4212 11.8416 24.7087 11.8023 24.9387 11.6494C25.7903 10.9966 26.7652 10.523 27.8047 10.2567C28.0629 11.145 28.0399 12.0913 27.7386 12.9659C27.638 13.2629 27.7037 13.5914 27.911 13.8267C28.7492 14.7217 29.2239 15.8972 29.2427 17.1233C29.2427 22.1009 26.24 23.134 23.298 23.4883C22.9374 23.5286 22.6382 23.7854 22.5442 24.1358C22.4503 24.4862 22.5806 24.8581 22.8727 25.0736C23.1867 25.3116 23.5513 25.9799 23.5513 27.0989V31.1094C23.5513 31.599 23.9479 31.9956 24.4371 31.9956C24.9267 31.9956 25.3234 31.599 25.3234 31.1094V27.0989C25.3326 26.3935 25.2036 25.6934 24.9437 25.0379C27.3236 24.5317 31 22.967 31 17.1385L30.9999 17.1385Z" fill="#232323"/>
</svg>
