<svg width="14" height="12" viewBox="0 0 14 12" fill="none" xmlns="http://www.w3.org/2000/svg">
<path d="M12.6 0.150024H1.4C0.63 0.150024 0.00699999 0.780024 0.00699999 1.55002L0 9.95002C0 10.72 0.63 11.35 1.4 11.35H12.6C13.37 11.35 14 10.72 14 9.95002V1.55002C14 0.780024 13.37 0.150024 12.6 0.150024ZM12.32 3.12502L7.371 6.21902C7.147 6.35902 6.853 6.35902 6.629 6.21902L1.68 3.12502C1.505 3.01302 1.4 2.82402 1.4 2.62102C1.4 2.15202 1.911 1.87202 2.31 2.11702L7 5.05002L11.69 2.11702C12.089 1.87202 12.6 2.15202 12.6 2.62102C12.6 2.82402 12.495 3.01302 12.32 3.12502Z" fill="#FCFCFC"/>
</svg>
